<svg id="Layer_1" enable-background="new 0 0 512 512" viewBox="0 0 512 512" xmlns="http://www.w3.org/2000/svg"><path d="m256 111.21c26.53 0 48.11-21.58 48.11-48.11s-21.58-48.1-48.11-48.1-48.11 21.58-48.11 48.11 21.58 48.1 48.11 48.1zm0-84.21c19.91 0 36.11 16.2 36.11 36.11s-16.2 36.1-36.11 36.1-36.11-16.2-36.11-36.11 16.2-36.1 36.11-36.1zm176.82 120.27h-91.12c-6.43-12.72-19.63-21.47-34.83-21.47h-101.74c-15.2 0-28.39 8.75-34.83 21.46-20.43-.15-39.61-.1-59.88-.05-10.28.03-20.64.06-31.25.06-20.26 0-36.75 16.48-36.75 36.75v126.42c0 12.28 9.99 22.27 22.27 22.27 3.7 0 7.2-.91 10.27-2.52v91.32c0 15.87 12.91 28.79 28.79 28.79 12.88 0 23.8-8.5 27.47-20.18 8.93 14.26 20.22 26.7 33.69 36.93 25.42 19.31 57.77 29.95 91.09 29.95s65.66-10.64 91.08-29.95c13.47-10.24 24.77-22.67 33.69-36.94 3.67 11.69 14.59 20.19 27.47 20.19 15.87 0 28.79-12.91 28.79-28.79v-91.31c3.08 1.61 6.57 2.52 10.27 2.52 12.28 0 22.27-9.99 22.27-22.27v-126.43c0-20.26-16.48-36.75-36.75-36.75zm-176.82 337.73c-55.81 0-118.72-34.03-133.45-110.06-4.49-23.15-4.58-55.33-3.96-86.42h46.29c-.63 31.82-.4 65.24 4.59 84.28 11.07 42.25 45.03 69.56 86.53 69.56s75.46-27.3 86.53-69.56c4.99-19.04 5.22-52.46 4.59-84.28h46.29c.62 31.09.53 63.27-3.96 86.42-14.74 76.03-77.65 110.06-133.45 110.06zm-90.51-220.97c-.11 4.07-.23 8.25-.33 12.49h-46.3c.07-2.7.13-5.38.2-8.04.27-10.54.52-20.6.6-29.79h46.41c-.09 7.44-.33 16.19-.58 25.34zm181.02 0c-.25-9.15-.49-17.9-.58-25.34h46.41c.08 9.2.34 19.26.6 29.79.07 2.65.13 5.34.2 8.03h-46.3c-.11-4.23-.22-8.41-.33-12.48zm111.06 46.41c0 5.67-4.61 10.27-10.27 10.27s-10.27-4.61-10.27-10.27v-97.25c0-3.31-2.69-6-6-6s-6 2.69-6 6v97.25 111.07c0 9.26-7.53 16.79-16.79 16.79s-16.79-7.53-16.79-16.79v-11.98c4.29-10.13 7.57-20.93 9.78-32.31 5.71-29.47 4.64-71.74 3.7-109.04-.32-12.8-.63-24.89-.63-35.49 0-3.31-2.69-6-6-6h-58.43c-3.31 0-6 2.69-6 6 0 8.67.31 19.84.63 31.67.96 35.03 2.27 83.01-3.59 105.4-9.64 36.81-39.05 60.6-74.92 60.6s-65.28-23.79-74.92-60.6c-5.87-22.4-4.55-70.37-3.59-105.41.32-11.82.63-22.99.63-31.66 0-3.31-2.69-6-6-6h-58.43c-3.31 0-6 2.69-6 6 0 10.6-.3 22.69-.63 35.49-.94 37.3-2.01 79.58 3.71 109.04 2.21 11.39 5.49 22.2 9.78 32.33v11.96c0 9.26-7.53 16.79-16.79 16.79s-16.79-7.53-16.79-16.79v-111.07-97.25c0-3.31-2.69-6-6-6s-6 2.69-6 6v97.25c0 5.67-4.61 10.27-10.27 10.27s-10.27-4.61-10.27-10.27v-126.42c0-13.65 11.1-24.75 24.75-24.75 10.62 0 20.99-.03 31.28-.06 19.01-.05 37.06-.1 56.07.02-.26 1.82-.41 3.68-.41 5.58v41.85c0 3.31 2.69 6 6 6s6-2.69 6-6v-41.85c0-14.9 12.12-27.02 27.02-27.02h101.73c14.9 0 27.02 12.12 27.02 27.02v41.85c0 3.31 2.69 6 6 6s6-2.69 6-6v-41.85c0-1.88-.14-3.73-.4-5.54h87.34c13.65 0 24.75 11.1 24.75 24.75zm-72.12-175.93c24.93 0 45.21-20.28 45.21-45.21s-20.28-45.21-45.21-45.21-45.21 20.28-45.21 45.21 20.28 45.21 45.21 45.21zm0-78.42c18.31 0 33.21 14.9 33.21 33.21s-14.9 33.21-33.21 33.21-33.21-14.9-33.21-33.21 14.9-33.21 33.21-33.21zm-258.9 78.42c24.93 0 45.21-20.28 45.21-45.21s-20.28-45.21-45.21-45.21-45.22 20.28-45.22 45.21 20.29 45.21 45.22 45.21zm0-78.42c18.31 0 33.21 14.9 33.21 33.21s-14.9 33.21-33.21 33.21-33.21-14.9-33.21-33.21 14.89-33.21 33.21-33.21zm183.25 282.44c.88 2.35.2 4.99-1.69 6.63l-48.18 41.75c-1.13.98-2.53 1.47-3.93 1.47s-2.8-.49-3.93-1.47l-48.18-41.75c-1.89-1.64-2.57-4.28-1.69-6.63s3.12-3.9 5.62-3.9h23.1v-77.73c0-3.31 2.69-6 6-6s6 2.69 6 6v83.73c0 3.31-2.69 6-6 6h-13.02l32.1 27.81 32.1-27.81h-13.01c-3.31 0-6-2.69-6-6v-83.73c0-3.31 2.69-6 6-6s6 2.69 6 6v77.73h23.1c2.5 0 4.74 1.56 5.61 3.9zm-106.93-131.86v-32.55c0-3.31 2.69-6 6-6s6 2.69 6 6v32.55c0 3.31-2.69 6-6 6s-6-2.69-6-6zm94.26 0v-32.55c0-3.31 2.69-6 6-6s6 2.69 6 6v32.55c0 3.31-2.69 6-6 6s-6-2.69-6-6z"/></svg>