<?xml version="1.0" encoding="UTF-8" standalone="no"?>
<!-- Created with Inkscape (http://www.inkscape.org/) -->

<svg
   version="1.1"
   id="svg273"
   xml:space="preserve"
   width="682.66669"
   height="682.66669"
   viewBox="0 0 682.66669 682.66669"
   xmlns="http://www.w3.org/2000/svg"
   xmlns:svg="http://www.w3.org/2000/svg"><defs
     id="defs277"><clipPath
       clipPathUnits="userSpaceOnUse"
       id="clipPath287"><path
         d="M 0,512 H 512 V 0 H 0 Z"
         id="path285" /></clipPath></defs><g
     id="g279"
     transform="matrix(1.3333333,0,0,-1.3333333,0,682.66667)"><g
       id="g281"><g
         id="g283"
         clip-path="url(#clipPath287)"><path
           d="m 271,140.333 h 69 V 107 h -69 z m -99,0 h 69 V 107 h -69 z m 69,93.334 H 172 V 267 h 69 z m 99,0 H 271 V 267 h 69 z m -69,-30 h 69 v -33.333 h -69 z m -99,0 h 69 V 170.334 H 172 Z M 224.18,77 H 355 c 8.284,0 15,6.716 15,15 v 190 c 0,8.284 -6.716,15 -15,15 H 157 c -8.284,0 -15,-6.716 -15,-15 V 92 c 0,-8.284 6.716,-15 15,-15 h 35.077"
           style="fill:none;stroke:#000000;stroke-width:15;stroke-linecap:round;stroke-linejoin:round;stroke-miterlimit:10;stroke-dasharray:none;stroke-opacity:1"
           id="path289" /><g
           id="g291"
           transform="translate(436,64.231)"><path
             d="m 0,0 v -36.731 c 0,-11.05 -8.95,-20 -20,-20 h -320 c -11.05,0 -20,8.95 -20,20 V 352"
             style="fill:none;stroke:#000000;stroke-width:15;stroke-linecap:round;stroke-linejoin:round;stroke-miterlimit:10;stroke-dasharray:none;stroke-opacity:1"
             id="path293" /></g><g
           id="g295"
           transform="translate(76,448.6411)"><path
             d="m 0,0 v 35.859 c 0,11.05 8.95,20 20,20 h 200 l 140,-140 V -352.41"
             style="fill:none;stroke:#000000;stroke-width:15;stroke-linecap:round;stroke-linejoin:round;stroke-miterlimit:10;stroke-dasharray:none;stroke-opacity:1"
             id="path297" /></g><g
           id="g299"
           transform="translate(435.4424,364.5)"><path
             d="m 0,0 h -119.442 c -11.046,0 -20,8.954 -20,20 v 119.077"
             style="fill:none;stroke:#000000;stroke-width:15;stroke-linecap:round;stroke-linejoin:round;stroke-miterlimit:10;stroke-dasharray:none;stroke-opacity:1"
             id="path301" /></g></g></g></g></svg>
